<?xml version="1.0" encoding="UTF-8"?>
<svg width="24px" height="24px" viewBox="0 0 24 24" version="1.1" xmlns="http://www.w3.org/2000/svg" xmlns:xlink="http://www.w3.org/1999/xlink">
    <!-- Generator: Sketch 51.3 (57544) - http://www.bohemiancoding.com/sketch -->
    <title>logo-scotiabank (1)</title>
    <desc>Created with Sketch.</desc>
    <defs></defs>
    <g id="Page-1" stroke="none" stroke-width="1" fill="none" fill-rule="evenodd">
        <g id="logo-scotiabank-(1)" fill="#ED0722" fill-rule="nonzero">
            <path d="M4.80072017,11.92 C4.04060614,10.68 3.88058214,9.08 3.88058214,7.84 C3.88058214,3.6 7.68115227,0 11.6017404,0 L24.0036008,0 L19.2028807,4.84 L11.5217284,4.84 C8.4412663,4.84 4.72070817,7.96 4.80072017,11.92 Z M9.52142833,8.44 C9.84147634,7.4 10.8416264,6.12 11.7617644,5.44 C9.96149435,5.44 7.96119428,6.28 6.40096022,8.44 L9.52142833,8.44 Z M12.0018004,6.04 C11.2816924,6.64 10.5215784,7.6 10.1215184,8.44 L13.8420765,8.44 C13.4820225,7.6 12.6819024,6.64 12.0018004,6.04 Z M6.12091821,9.08 C5.6408462,9.92 5.44081619,10.84 5.36080419,11.8 L8.84132631,11.8 C8.84132631,10.88 9.00135032,9.92 9.32139833,9.08 L6.12091821,9.08 Z M9.92148835,9.08 C9.60144034,9.92 9.48142233,10.84 9.40141033,11.8 L14.6421965,11.8 C14.5621845,10.88 14.4021605,9.92 14.1221185,9.08 L9.92148835,9.08 Z M17.5226286,8.44 C16.0424066,6.28 14.0421065,5.44 12.2818424,5.44 C13.2019805,6.12 14.1221185,7.44 14.5221785,8.44 L17.5226286,8.44 Z M14.7222085,9.08 C15.0422565,9.92 15.2022805,10.84 15.2022805,11.8 L18.6828027,11.8 C18.6427967,10.88 18.4027606,9.92 17.9226886,9.08 L14.7222085,9.08 Z M6.44096623,15.56 C8.00120028,17.8 10.0015004,18.6 11.8017704,18.6 C10.8816324,17.88 9.88148235,16.6 9.56143433,15.56 L6.44096623,15.56 Z M12.0018004,18.04 C12.6819024,17.44 13.4420165,16.4 13.8420765,15.56 L10.1215184,15.56 C10.5215784,16.44 11.3216984,17.44 12.0018004,18.04 Z M9.32139833,15.04 C9.00135032,14.12 8.84132631,13.2 8.84132631,12.32 L5.36080419,12.32 C5.44081619,13.24 5.6808522,14.16 6.12091821,15.04 L9.32139833,15.04 Z M14.0821125,15.04 C14.4021605,14.2 14.5221785,13.24 14.6021905,12.32 L9.36140433,12.32 C9.44141633,13.24 9.60144034,14.16 9.88148235,15.04 L14.0821125,15.04 Z M14.4821725,15.56 C14.0821125,16.56 13.1619745,17.88 12.2418364,18.6 C14.0021005,18.6 16.0424066,17.84 17.4826226,15.56 L14.4821725,15.56 Z M17.8826826,15.04 C18.3627546,14.2 18.6027907,13.24 18.6427967,12.32 L15.1622745,12.32 C15.1622745,13.16 15.0022505,14.08 14.6822025,15.04 L17.8826826,15.04 Z M19.2028807,12 C19.2828927,16.12 15.5623345,19.2 12.4818724,19.2 L4.80072017,19.2 L0,24 L12.4018604,24 C16.3624546,24 20.1630247,20.44 20.1630247,16.2 C20.1630247,14.96 20.0030007,13.32 19.2428867,12.08 L19.2428867,12 L19.2028807,12 Z" id="FlyingS"></path>
        </g>
    </g>
</svg>